<?xml version="1.0" standalone="no"?>
<!DOCTYPE svg PUBLIC "-//W3C//DTD SVG 20010904//EN"
 "http://www.w3.org/TR/2001/REC-SVG-20010904/DTD/svg10.dtd">
<svg version="1.0" xmlns="http://www.w3.org/2000/svg"
 width="1200.000000pt" height="630.000000pt" viewBox="0 0 1200.000000 630.000000"
 preserveAspectRatio="xMidYMid meet">

<g transform="translate(0.000000,630.000000) scale(0.100000,-0.100000)"
fill="#000000" stroke="none">
<path d="M0 3150 l0 -3150 6000 0 6000 0 0 3150 0 3150 -6000 0 -6000 0 0
-3150z m3828 446 l2 -559 163 227 162 226 198 0 198 0 -57 -72 c-201 -257
-345 -448 -344 -455 1 -4 93 -138 204 -298 111 -159 205 -296 210 -302 6 -10
-32 -13 -176 -12 l-183 0 -185 252 -185 252 -3 -252 -2 -253 -165 0 -165 0 0
905 0 905 163 -2 162 -3 3 -559z m1742 219 c0 -190 3 -345 8 -345 4 0 36 10
72 21 91 29 253 36 344 15 199 -47 333 -184 382 -392 22 -94 23 -279 1 -363
-42 -156 -145 -288 -279 -354 -99 -49 -180 -67 -328 -74 -108 -4 -137 -2 -210
17 -114 29 -218 79 -274 130 l-46 43 0 823 0 824 165 0 165 0 0 -345z m-622
206 c77 -40 112 -97 112 -182 0 -58 -15 -91 -62 -136 -60 -58 -138 -69 -216
-32 -144 70 -144 276 0 348 53 26 117 27 166 2z m2698 -36 c49 -29 94 -108 94
-164 -1 -152 -192 -247 -308 -154 -99 79 -108 206 -20 295 63 62 152 71 234
23z m634 -315 l0 -170 110 0 110 0 0 -130 0 -130 -116 0 -115 0 3 -275 3 -275
28 -27 c25 -25 35 -28 112 -32 l85 -3 0 -143 0 -144 -55 -6 c-31 -4 -95 -5
-143 -3 -183 9 -310 114 -357 295 -12 48 -15 154 -15 635 l0 578 175 0 175 0
0 -170z m-1060 -300 l0 -140 -87 0 c-99 0 -150 -18 -194 -66 -50 -55 -53 -74
-57 -456 l-4 -358 -164 0 -164 0 0 575 0 575 165 0 165 0 0 -55 0 -55 39 39
c49 49 137 80 234 80 l67 1 0 -140z m-2192 -447 l2 -573 -170 0 -170 0 0 575
0 575 168 -2 167 -3 3 -572z m2682 2 l0 -575 -170 0 -170 0 0 568 c0 313 3
572 7 575 3 4 80 7 170 7 l163 0 0 -575z"/>
<path d="M5686 3215 c-21 -7 -55 -27 -75 -43 l-36 -29 -3 -235 -2 -234 39 -22
c49 -28 141 -41 221 -31 47 5 71 14 98 37 135 108 146 430 20 525 -61 46 -181
61 -262 32z"/>
</g>
</svg>
