<?xml version="1.0" standalone="no"?>
<!DOCTYPE svg PUBLIC "-//W3C//DTD SVG 20010904//EN"
 "http://www.w3.org/TR/2001/REC-SVG-20010904/DTD/svg10.dtd">
<svg version="1.0" xmlns="http://www.w3.org/2000/svg"
 width="200.000000pt" height="200.000000pt" viewBox="0 0 200.000000 200.000000"
 preserveAspectRatio="xMidYMid meet">

<g transform="translate(0.000000,200.000000) scale(0.100000,-0.100000)"
fill="#000000" stroke="none">
<path d="M415 1734 c-142 -52 -200 -242 -165 -545 22 -190 75 -285 176 -315
67 -19 126 -13 239 26 109 38 149 56 164 74 7 9 18 13 23 10 6 -4 6 2 -1 14
-10 19 -12 19 -95 -14 -350 -141 -442 -77 -462 316 -10 212 28 328 126 378 27
13 62 22 91 22 58 0 177 -30 254 -65 33 -15 70 -28 83 -30 23 -2 23 -2 3 16
-11 11 -26 19 -33 19 -10 0 -10 2 0 9 10 6 -9 18 -61 40 -142 59 -261 75 -342
45z m420 -114 c3 -6 -1 -7 -9 -4 -18 7 -21 14 -7 14 6 0 13 -4 16 -10z m5
-620 c0 -5 -5 -10 -11 -10 -5 0 -7 5 -4 10 3 6 8 10 11 10 2 0 4 -4 4 -10z"/>
<path d="M483 1595 c-38 -16 -77 -72 -94 -135 -31 -112 -4 -349 47 -410 54
-64 161 -59 307 15 70 36 128 75 110 75 -5 0 -13 -3 -19 -7 -5 -5 2 2 15 14
21 19 22 21 5 20 -10 -1 -21 -4 -24 -7 -3 -3 -45 -24 -95 -48 -154 -72 -237
-77 -268 -15 -24 46 -40 143 -40 240 0 79 4 100 27 146 15 32 36 58 51 65 35
16 98 15 163 -2 58 -16 158 -71 160 -90 7 -44 8 -82 4 -89 -2 -5 -18 5 -36 22
-63 61 -187 93 -243 63 -32 -17 -46 -82 -40 -175 7 -99 27 -127 94 -127 76 0
222 91 208 130 -3 8 -3 11 1 8 12 -13 30 16 26 40 -3 14 -1 22 5 19 10 -6 9
45 -2 62 -3 6 1 14 9 17 14 5 13 9 -4 31 -23 29 -26 47 -7 38 6 -4 -3 7 -22
24 -84 74 -254 113 -338 76z m365 -160 c-3 -3 -9 2 -12 12 -6 14 -5 15 5 6 7
-7 10 -15 7 -18z m-169 -30 c50 -17 97 -49 111 -75 21 -40 -98 -130 -173 -130
-46 0 -57 22 -57 116 0 51 4 68 20 84 24 24 44 25 99 5z"/>
<path d="M687 624 c-14 -15 -7 -122 9 -138 22 -23 274 -24 274 -1 0 12 -23 15
-127 17 l-128 3 -3 55 c-3 54 -12 77 -25 64z"/>
<path d="M1036 623 c-3 -3 -6 -39 -6 -80 0 -58 3 -73 15 -73 12 0 15 15 15 74
0 69 -8 95 -24 79z"/>
<path d="M1126 614 c-22 -22 -23 -144 -1 -144 11 0 15 12 15 48 0 77 5 78 115
11 131 -78 139 -77 143 24 2 61 0 78 -10 75 -8 -3 -14 -26 -16 -61 -2 -31 -8
-57 -13 -57 -6 0 -55 27 -108 60 -54 33 -100 60 -104 60 -3 0 -13 -7 -21 -16z"/>
<path d="M1460 551 c0 -65 3 -81 15 -81 10 0 15 10 15 31 l0 31 73 -4 c60 -3
82 -8 115 -31 73 -48 102 -29 32 22 l-40 29 40 26 c22 14 40 30 40 36 0 20
-21 19 -55 -5 -46 -31 -96 -45 -157 -45 -45 0 -47 1 -50 32 -2 17 -9 33 -15
36 -10 3 -13 -17 -13 -77z"/>
<path d="M600 605 c0 -8 4 -15 8 -15 5 0 9 7 9 15 0 8 -4 15 -9 15 -4 0 -8 -7
-8 -15z"/>
<path d="M612 545 c0 -16 2 -22 5 -12 2 9 2 23 0 30 -3 6 -5 -1 -5 -18z"/>
<path d="M606 485 c-3 -8 -1 -15 4 -15 6 0 10 7 10 15 0 8 -2 15 -4 15 -2 0
-6 -7 -10 -15z"/>
<path d="M520 382 c0 -4 5 -13 12 -20 9 -9 7 -16 -6 -31 -38 -42 -1 -95 53
-74 19 7 33 7 39 1 7 -7 9 -1 9 16 -1 14 -7 26 -14 26 -6 0 -24 15 -39 33
l-27 32 26 3 c42 5 32 22 -13 22 -22 0 -40 -4 -40 -8z m60 -77 l23 -24 -26
-12 c-41 -19 -75 19 -45 49 17 17 21 15 48 -13z"/>
<path d="M313 352 c-20 -3 -23 -9 -23 -53 0 -31 4 -48 10 -44 6 3 10 15 10 26
0 29 43 25 60 -6 7 -14 17 -25 22 -25 5 0 2 10 -6 22 -14 19 -14 24 -1 38 27
30 -10 52 -72 42z m67 -27 c0 -10 -11 -15 -35 -15 -24 0 -35 5 -35 15 0 10 11
15 35 15 24 0 35 -5 35 -15z"/>
<path d="M740 300 c0 -48 1 -50 28 -49 26 0 26 1 5 9 -18 7 -23 17 -23 45 0
33 2 35 35 35 29 0 36 -4 41 -27 5 -19 2 -30 -11 -40 -11 -7 -14 -13 -9 -13
17 0 34 23 34 45 0 31 -19 45 -62 45 l-38 0 0 -50z"/>
<path d="M950 331 c-5 -11 -10 -24 -10 -30 0 -20 40 -51 63 -50 17 1 15 3 -10
10 -39 11 -52 43 -27 70 9 10 12 19 6 19 -6 0 -16 -9 -22 -19z"/>
<path d="M1020 346 c0 -2 7 -7 16 -10 8 -3 12 -2 9 4 -6 10 -25 14 -25 6z"/>
<path d="M1090 309 c0 -11 4 -18 10 -14 5 3 7 12 3 20 -7 21 -13 19 -13 -6z"/>
</g>
</svg>
